<svg width="1024" height="1024" viewBox="0 0 1024 1024" xmlns="http://www.w3.org/2000/svg">
  <defs>
    <radialGradient id="orangeGradient" cx="0.3" cy="0.3" r="0.8">
      <stop offset="0%" stop-color="#FFD700"/>
      <stop offset="30%" stop-color="#FFA500"/>
      <stop offset="70%" stop-color="#FF8C00"/>
      <stop offset="100%" stop-color="#FF6347"/>
    </radialGradient>
    <linearGradient id="leafGradient" x1="0%" y1="0%" x2="100%" y2="100%">
      <stop offset="0%" stop-color="#90EE90"/>
      <stop offset="50%" stop-color="#32CD32"/>
      <stop offset="100%" stop-color="#228B22"/>
    </linearGradient>
    <filter id="shadow" x="-20%" y="-20%" width="140%" height="140%">
      <feDropShadow dx="8" dy="16" stdDeviation="16" flood-color="rgba(0,0,0,0.3)"/>
    </filter>
  </defs>
  
  <!-- Orange body -->
  <circle cx="512" cy="560" r="360" fill="url(#orangeGradient)" filter="url(#shadow)"/>
  
  <!-- Orange texture lines -->
  <path d="M 240 400 Q 512 300 784 400" stroke="#FF7F50" stroke-width="4" fill="none" opacity="0.6"/>
  <path d="M 200 500 Q 512 400 824 500" stroke="#FF7F50" stroke-width="4" fill="none" opacity="0.6"/>
  <path d="M 220 600 Q 512 500 804 600" stroke="#FF7F50" stroke-width="4" fill="none" opacity="0.6"/>
  <path d="M 240 700 Q 512 600 784 700" stroke="#FF7F50" stroke-width="4" fill="none" opacity="0.6"/>
  <path d="M 280 800 Q 512 700 744 800" stroke="#FF7F50" stroke-width="4" fill="none" opacity="0.6"/>
  
  <!-- Vertical texture lines -->
  <path d="M 400 240 Q 440 560 480 880" stroke="#FF7F50" stroke-width="4" fill="none" opacity="0.5"/>
  <path d="M 512 220 Q 512 560 512 900" stroke="#FF7F50" stroke-width="4" fill="none" opacity="0.5"/>
  <path d="M 624 240 Q 584 560 544 880" stroke="#FF7F50" stroke-width="4" fill="none" opacity="0.5"/>
  
  <!-- Leaf -->
  <ellipse cx="560" cy="280" rx="70" ry="120" fill="url(#leafGradient)" transform="rotate(-20 560 280)"/>
  
  <!-- Leaf vein -->
  <path d="M 560 220 Q 570 280 560 340" stroke="#228B22" stroke-width="4" fill="none" transform="rotate(-20 560 280)"/>
  
  <!-- Small stem -->
  <rect x="504" y="240" width="16" height="50" fill="#8B4513" rx="8"/>
  
  <!-- Highlight on orange -->
  <ellipse cx="400" cy="440" rx="80" ry="120" fill="rgba(255,255,255,0.3)" transform="rotate(-30 400 440)"/>
  
  <!-- Small dots for texture -->
  <circle cx="360" cy="520" r="6" fill="#FF6347" opacity="0.7"/>
  <circle cx="640" cy="480" r="4" fill="#FF6347" opacity="0.7"/>
  <circle cx="580" cy="640" r="5" fill="#FF6347" opacity="0.7"/>
  <circle cx="440" cy="700" r="4" fill="#FF6347" opacity="0.7"/>
  
  <!-- Calendar/task icon overlay -->
  <rect x="420" y="580" width="184" height="140" fill="rgba(255,255,255,0.9)" rx="12" stroke="#FF8C00" stroke-width="3"/>
  
  <!-- Calendar header -->
  <rect x="420" y="580" width="184" height="32" fill="#FF8C00" rx="12"/>
  <rect x="420" y="600" width="184" height="12" fill="#FF8C00"/>
  
  <!-- Calendar grid -->
  <line x1="460" y1="620" x2="460" y2="710" stroke="#DDD" stroke-width="1"/>
  <line x1="500" y1="620" x2="500" y2="710" stroke="#DDD" stroke-width="1"/>
  <line x1="540" y1="620" x2="540" y2="710" stroke="#DDD" stroke-width="1"/>
  <line x1="580" y1="620" x2="580" y2="710" stroke="#DDD" stroke-width="1"/>
  
  <line x1="430" y1="640" x2="594" y2="640" stroke="#DDD" stroke-width="1"/>
  <line x1="430" y1="660" x2="594" y2="660" stroke="#DDD" stroke-width="1"/>
  <line x1="430" y1="680" x2="594" y2="680" stroke="#DDD" stroke-width="1"/>
  <line x1="430" y1="700" x2="594" y2="700" stroke="#DDD" stroke-width="1"/>
  
  <!-- Task checkmarks -->
  <circle cx="450" cy="650" r="4" fill="#32CD32"/>
  <path d="M 447 650 L 449 652 L 453 648" stroke="white" stroke-width="2" fill="none"/>
  
  <circle cx="530" cy="670" r="4" fill="#32CD32"/>
  <path d="M 527 670 L 529 672 L 533 668" stroke="white" stroke-width="2" fill="none"/>
</svg>